<svg xmlns="http://www.w3.org/2000/svg" xmlns:xlink="http://www.w3.org/1999/xlink" fill="none" height="49" viewBox="0 0 101 49" width="101"><mask id="a" fill="#000" height="36" maskUnits="userSpaceOnUse" width="101" x="0" y="0"><path d="m0 0h101v36h-101z" fill="#fff"/><path d="m11.212 35.684c-1.87067 0-3.588-.4907-5.152-1.472s-2.806-2.3153-3.726-4.002c-.88933-1.7173-1.334-3.6187-1.334-5.704 0-2.024.44467-3.8947 1.334-5.612.88933-1.748 2.116-3.1433 3.68-4.186 1.59467-1.0427 3.37333-1.564 5.336-1.564 1.7173 0 3.1433.3067 4.278.92 1.1653.6133 2.0087 1.334 2.53 2.162s.782 1.5487.782 2.162c0 .736-.414 1.288-1.242 1.656-2.116.9507-5.198 2.116-9.246 3.496-2.668.9813-4.002 2.2847-4.002 3.91 0 .3987.092.828.276 1.288.58267 1.4107 1.54867 2.6527 2.898 3.726 1.38 1.0733 3.0973 1.61 5.152 1.61 1.196 0 2.346-.276 3.45-.828 1.1347-.552 2.1313-1.2727 2.99-2.162.5213-.5213.8893-.7207 1.104-.598.0307 0 .046.046.046.138 0 .2147-.092.4293-.276.644-.9507 1.2573-2.1773 2.3153-3.68 3.174-1.472.828-3.2047 1.242-5.198 1.242zm-7.498-9.706c.39867-.9813 1.11933-1.7633 2.162-2.346 1.07333-.5827 2.56067-1.196 4.462-1.84 1.3493-.46 2.3767-.8433 3.082-1.15.92-.4293 1.5333-.7973 1.84-1.104.3373-.3067.506-.69.506-1.15 0-.644-.184-1.288-.552-1.932s-.92-1.1807-1.656-1.61c-.7053-.4293-1.5793-.644-2.622-.644-.368 0-.6593.0153-.874.046-2.14667.276-3.818 1.2113-5.014 2.806-1.16533 1.5947-1.748 3.5113-1.748 5.75 0 1.0427.138 2.1007.414 3.174z" fill="#000"/><path d="m28.3183 33.292c0 .3987.1073.69.3219.874.2147.1533.5827.276 1.1041.368.5213.092 1.1346.1687 1.84.23.276.0307.506.092.69.184.184.0613.276.1533.276.276s-.0767.1993-.23.23c-.1227.0307-.2761.046-.46.046h-9.5681c-.184 0-.3526-.0153-.5059-.046-.1227-.0307-.184-.1073-.184-.23s.092-.2147.276-.276c.184-.092.414-.1533.69-.184.184-.0307.6439-.0767 1.3799-.138.7667-.092 1.2727-.23 1.5181-.414.2453-.2147.3679-.5213.3679-.92v-28.704c0-.368-.1226-.61333-.3679-.736-.2454-.15333-.644-.23-1.196-.23h-1.7481c-.184 0-.3526-.01533-.5059-.046-.1227-.03067-.184-.10733-.184-.23s.1226-.21466.368-.276c.276-.06133.8433-.15333 1.702-.276.6746-.092 1.2419-.24533 1.7019-.46.46-.24533.9354-.53667 1.4261-.874.3986-.30667.7053-.46.92-.46.1533 0 .2453.10733.276.322.0613.21467.092.61333.092 1.196z" fill="#000"/><path d="m49.9591 22.85c-.4907.5213-1.196.966-2.116 1.334-.8893.3373-2.116.736-3.68 1.196-.736.184-1.472.3987-2.208.644-1.5947.5213-2.714 1.1347-3.358 1.84-.6133.6747-.92 1.4873-.92 2.438 0 1.196.4907 2.2233 1.472 3.082.9813.828 2.1313 1.242 3.45 1.242 1.5947 0 2.944-.3833 4.048-1.15 1.1347-.7973 1.9627-1.7787 2.484-2.944.552-1.1653.828-2.3.828-3.404zm-15.134 8.05c0-1.4413.506-2.5453 1.518-3.312 1.0427-.7973 2.7753-1.5947 5.198-2.392l1.84-.598c2.4227-.7667 4.1093-1.4107 5.06-1.932.9813-.552 1.472-1.3033 1.472-2.254 0-1.9627-.414-3.5113-1.242-4.646s-2.1313-1.702-3.91-1.702c-3.3427 0-4.968 1.1347-4.876 3.404.0307.7053-.1073 1.242-.414 1.61-.3067.3373-.7207.506-1.242.506-1.012 0-1.518-.5367-1.518-1.61 0-.92.368-1.748 1.104-2.484s1.7173-1.3033 2.944-1.702c1.2267-.4293 2.5607-.644 4.002-.644 5.1213 0 7.682 2.6373 7.682 7.912v10.856c0 1.1347.092 1.886.276 2.254.2147.3373.552.506 1.012.506.3067 0 .6747-.138 1.104-.414.4293-.3067.6747-.4907.736-.552.46-.3067.7667-.3833.92-.23.0307.0307.046.092.046.184 0 .1227-.092.276-.276.46-.552.552-1.1347.9507-1.748 1.196-.5827.2453-1.1193.368-1.61.368-.6747 0-1.334-.1687-1.978-.506s-.966-1.058-.966-2.162v-.414c0-.276-.046-.414-.138-.414s-.23.1073-.414.322c-1.9933 2.116-4.7227 3.174-8.188 3.174-.9507 0-1.932-.184-2.944-.552-.9813-.368-1.8093-.9047-2.484-1.61-.644-.736-.966-1.61-.966-2.622z" fill="#000"/><path d="m64.6899 33.292c0 .4907.2146.8127.644.966.4293.1533.9813.276 1.656.368.7053.0613 1.1806.1073 1.426.138.276.0307.506.092.69.184.184.0613.276.1533.276.276s-.0767.1993-.23.23c-.1227.0307-.276.046-.46.046h-9.568c-.184 0-.3527-.0153-.506-.046-.1227-.0307-.184-.1073-.184-.23 0-.2147.322-.368.966-.46.184-.0307.5826-.092 1.196-.184.644-.092 1.0733-.23 1.288-.414.2146-.2147.322-.506.322-.874v-16.192c0-.3987-.0614-.6593-.184-.782-.1227-.1227-.4294-.184-.92-.184h-1.288c-.184 0-.3527-.0153-.506-.046-.1227-.0307-.184-.1073-.184-.23s.138-.2147.414-.276c.276-.092.6746-.184 1.196-.276.6746-.1227 1.2113-.2913 1.61-.506.3986-.2453.782-.5213 1.15-.828s.644-.46.828-.46c.1533 0 .2453.1073.276.322.0613.2147.092.6133.092 1.196v1.426c0 .276.046.414.138.414.0613 0 .1686-.1073.322-.322.6746-1.012 1.564-1.8247 2.668-2.438 1.1346-.644 2.438-.966 3.91-.966 1.1346 0 2.2233.2453 3.266.736 1.0426.46 1.564 1.1193 1.564 1.978 0 .46-.1534.828-.46 1.104-.3067.276-.6747.414-1.104.414-.4907 0-.8587-.1073-1.104-.322-.2147-.2147-.46-.5673-.736-1.058-.3067-.5827-.644-1.012-1.012-1.288-.368-.3067-.9507-.46-1.748-.46-1.1654 0-2.1927.3987-3.082 1.196-.8587.7667-1.518 1.794-1.978 3.082-.4294 1.2573-.644 2.6067-.644 4.048z" fill="#000"/><path d="m94.0275 22.85c-.4907.5213-1.196.966-2.116 1.334-.8894.3373-2.116.736-3.68 1.196-.736.184-1.472.3987-2.208.644-1.5947.5213-2.714 1.1347-3.358 1.84-.6134.6747-.92 1.4873-.92 2.438 0 1.196.4906 2.2233 1.472 3.082.9813.828 2.1313 1.242 3.4499 1.242 1.5947 0 2.9441-.3833 4.0481-1.15 1.1346-.7973 1.9626-1.7787 2.484-2.944.552-1.1653.828-2.3.828-3.404zm-15.134 8.05c0-1.4413.506-2.5453 1.518-3.312 1.0426-.7973 2.7753-1.5947 5.198-2.392l1.84-.598c2.4226-.7667 4.1093-1.4107 5.06-1.932.9813-.552 1.472-1.3033 1.472-2.254 0-1.9627-.414-3.5113-1.242-4.646s-2.1314-1.702-3.91-1.702c-3.3427 0-4.968 1.1347-4.876 3.404.0306.7053-.1074 1.242-.414 1.61-.3067.3373-.7207.506-1.242.506-1.012 0-1.518-.5367-1.518-1.61 0-.92.368-1.748 1.104-2.484s1.7173-1.3033 2.944-1.702c1.2266-.4293 2.5606-.644 4.002-.644 5.1213 0 7.682 2.6373 7.682 7.912v10.856c0 1.1347.092 1.886.276 2.254.2146.3373.552.506 1.012.506.3066 0 .6746-.138 1.104-.414.4293-.3067.6746-.4907.736-.552.4595-.3067.7665-.3833.9195-.23.031.0307.046.092.046.184 0 .1227-.092.276-.276.46-.5515.552-1.1342.9507-1.7475 1.196-.5827.2453-1.1194.368-1.61.368-.6747 0-1.334-.1687-1.978-.506s-.966-1.058-.966-2.162v-.414c0-.276-.046-.414-.138-.414s-.23.1073-.414.322c-1.9934 2.116-4.7227 3.174-8.188 3.174-.9507 0-1.932-.184-2.944-.552-.9814-.368-1.8094-.9047-2.484-1.61-.644-.736-.966-1.61-.966-2.622z" fill="#000"/></mask><g fill="#ffe2c0"><path d="m11.212 35.684c-1.87067 0-3.588-.4907-5.152-1.472s-2.806-2.3153-3.726-4.002c-.88933-1.7173-1.334-3.6187-1.334-5.704 0-2.024.44467-3.8947 1.334-5.612.88933-1.748 2.116-3.1433 3.68-4.186 1.59467-1.0427 3.37333-1.564 5.336-1.564 1.7173 0 3.1433.3067 4.278.92 1.1653.6133 2.0087 1.334 2.53 2.162s.782 1.5487.782 2.162c0 .736-.414 1.288-1.242 1.656-2.116.9507-5.198 2.116-9.246 3.496-2.668.9813-4.002 2.2847-4.002 3.91 0 .3987.092.828.276 1.288.58267 1.4107 1.54867 2.6527 2.898 3.726 1.38 1.0733 3.0973 1.61 5.152 1.61 1.196 0 2.346-.276 3.45-.828 1.1347-.552 2.1313-1.2727 2.99-2.162.5213-.5213.8893-.7207 1.104-.598.0307 0 .046.046.046.138 0 .2147-.092.4293-.276.644-.9507 1.2573-2.1773 2.3153-3.68 3.174-1.472.828-3.2047 1.242-5.198 1.242zm-7.498-9.706c.39867-.9813 1.11933-1.7633 2.162-2.346 1.07333-.5827 2.56067-1.196 4.462-1.84 1.3493-.46 2.3767-.8433 3.082-1.15.92-.4293 1.5333-.7973 1.84-1.104.3373-.3067.506-.69.506-1.15 0-.644-.184-1.288-.552-1.932s-.92-1.1807-1.656-1.61c-.7053-.4293-1.5793-.644-2.622-.644-.368 0-.6593.0153-.874.046-2.14667.276-3.818 1.2113-5.014 2.806-1.16533 1.5947-1.748 3.5113-1.748 5.75 0 1.0427.138 2.1007.414 3.174z"/><path d="m28.3183 33.292c0 .3987.1073.69.3219.874.2147.1533.5827.276 1.1041.368.5213.092 1.1346.1687 1.84.23.276.0307.506.092.69.184.184.0613.276.1533.276.276s-.0767.1993-.23.23c-.1227.0307-.2761.046-.46.046h-9.5681c-.184 0-.3526-.0153-.5059-.046-.1227-.0307-.184-.1073-.184-.23s.092-.2147.276-.276c.184-.092.414-.1533.69-.184.184-.0307.6439-.0767 1.3799-.138.7667-.092 1.2727-.23 1.5181-.414.2453-.2147.3679-.5213.3679-.92v-28.704c0-.368-.1226-.61333-.3679-.736-.2454-.15333-.644-.23-1.196-.23h-1.7481c-.184 0-.3526-.01533-.5059-.046-.1227-.03067-.184-.10733-.184-.23s.1226-.21466.368-.276c.276-.06133.8433-.15333 1.702-.276.6746-.092 1.2419-.24533 1.7019-.46.46-.24533.9354-.53667 1.4261-.874.3986-.30667.7053-.46.92-.46.1533 0 .2453.10733.276.322.0613.21467.092.61333.092 1.196z"/><path d="m49.9591 22.85c-.4907.5213-1.196.966-2.116 1.334-.8893.3373-2.116.736-3.68 1.196-.736.184-1.472.3987-2.208.644-1.5947.5213-2.714 1.1347-3.358 1.84-.6133.6747-.92 1.4873-.92 2.438 0 1.196.4907 2.2233 1.472 3.082.9813.828 2.1313 1.242 3.45 1.242 1.5947 0 2.944-.3833 4.048-1.15 1.1347-.7973 1.9627-1.7787 2.484-2.944.552-1.1653.828-2.3.828-3.404zm-15.134 8.05c0-1.4413.506-2.5453 1.518-3.312 1.0427-.7973 2.7753-1.5947 5.198-2.392l1.84-.598c2.4227-.7667 4.1093-1.4107 5.06-1.932.9813-.552 1.472-1.3033 1.472-2.254 0-1.9627-.414-3.5113-1.242-4.646s-2.1313-1.702-3.91-1.702c-3.3427 0-4.968 1.1347-4.876 3.404.0307.7053-.1073 1.242-.414 1.61-.3067.3373-.7207.506-1.242.506-1.012 0-1.518-.5367-1.518-1.61 0-.92.368-1.748 1.104-2.484s1.7173-1.3033 2.944-1.702c1.2267-.4293 2.5607-.644 4.002-.644 5.1213 0 7.682 2.6373 7.682 7.912v10.856c0 1.1347.092 1.886.276 2.254.2147.3373.552.506 1.012.506.3067 0 .6747-.138 1.104-.414.4293-.3067.6747-.4907.736-.552.46-.3067.7667-.3833.92-.23.0307.0307.046.092.046.184 0 .1227-.092.276-.276.46-.552.552-1.1347.9507-1.748 1.196-.5827.2453-1.1193.368-1.61.368-.6747 0-1.334-.1687-1.978-.506s-.966-1.058-.966-2.162v-.414c0-.276-.046-.414-.138-.414s-.23.1073-.414.322c-1.9933 2.116-4.7227 3.174-8.188 3.174-.9507 0-1.932-.184-2.944-.552-.9813-.368-1.8093-.9047-2.484-1.61-.644-.736-.966-1.61-.966-2.622z"/><path d="m64.6899 33.292c0 .4907.2146.8127.644.966.4293.1533.9813.276 1.656.368.7053.0613 1.1806.1073 1.426.138.276.0307.506.092.69.184.184.0613.276.1533.276.276s-.0767.1993-.23.23c-.1227.0307-.276.046-.46.046h-9.568c-.184 0-.3527-.0153-.506-.046-.1227-.0307-.184-.1073-.184-.23 0-.2147.322-.368.966-.46.184-.0307.5826-.092 1.196-.184.644-.092 1.0733-.23 1.288-.414.2146-.2147.322-.506.322-.874v-16.192c0-.3987-.0614-.6593-.184-.782-.1227-.1227-.4294-.184-.92-.184h-1.288c-.184 0-.3527-.0153-.506-.046-.1227-.0307-.184-.1073-.184-.23s.138-.2147.414-.276c.276-.092.6746-.184 1.196-.276.6746-.1227 1.2113-.2913 1.61-.506.3986-.2453.782-.5213 1.15-.828s.644-.46.828-.46c.1533 0 .2453.1073.276.322.0613.2147.092.6133.092 1.196v1.426c0 .276.046.414.138.414.0613 0 .1686-.1073.322-.322.6746-1.012 1.564-1.8247 2.668-2.438 1.1346-.644 2.438-.966 3.91-.966 1.1346 0 2.2233.2453 3.266.736 1.0426.46 1.564 1.1193 1.564 1.978 0 .46-.1534.828-.46 1.104-.3067.276-.6747.414-1.104.414-.4907 0-.8587-.1073-1.104-.322-.2147-.2147-.46-.5673-.736-1.058-.3067-.5827-.644-1.012-1.012-1.288-.368-.3067-.9507-.46-1.748-.46-1.1654 0-2.1927.3987-3.082 1.196-.8587.7667-1.518 1.794-1.978 3.082-.4294 1.2573-.644 2.6067-.644 4.048z"/><path d="m94.0275 22.85c-.4907.5213-1.196.966-2.116 1.334-.8894.3373-2.116.736-3.68 1.196-.736.184-1.472.3987-2.208.644-1.5947.5213-2.714 1.1347-3.358 1.84-.6134.6747-.92 1.4873-.92 2.438 0 1.196.4906 2.2233 1.472 3.082.9813.828 2.1313 1.242 3.4499 1.242 1.5947 0 2.9441-.3833 4.0481-1.15 1.1346-.7973 1.9626-1.7787 2.484-2.944.552-1.1653.828-2.3.828-3.404zm-15.134 8.05c0-1.4413.506-2.5453 1.518-3.312 1.0426-.7973 2.7753-1.5947 5.198-2.392l1.84-.598c2.4226-.7667 4.1093-1.4107 5.06-1.932.9813-.552 1.472-1.3033 1.472-2.254 0-1.9627-.414-3.5113-1.242-4.646s-2.1314-1.702-3.91-1.702c-3.3427 0-4.968 1.1347-4.876 3.404.0306.7053-.1074 1.242-.414 1.61-.3067.3373-.7207.506-1.242.506-1.012 0-1.518-.5367-1.518-1.61 0-.92.368-1.748 1.104-2.484s1.7173-1.3033 2.944-1.702c1.2266-.4293 2.5606-.644 4.002-.644 5.1213 0 7.682 2.6373 7.682 7.912v10.856c0 1.1347.092 1.886.276 2.254.2146.3373.552.506 1.012.506.3066 0 .6746-.138 1.104-.414.4293-.3067.6746-.4907.736-.552.4595-.3067.7665-.3833.9195-.23.031.0307.046.092.046.184 0 .1227-.092.276-.276.46-.5515.552-1.1342.9507-1.7475 1.196-.5827.2453-1.1194.368-1.61.368-.6747 0-1.334-.1687-1.978-.506s-.966-1.058-.966-2.162v-.414c0-.276-.046-.414-.138-.414s-.23.1073-.414.322c-1.9934 2.116-4.7227 3.174-8.188 3.174-.9507 0-1.932-.184-2.944-.552-.9814-.368-1.8094-.9047-2.484-1.61-.644-.736-.966-1.61-.966-2.622z"/></g><path d="m11.212 35.684c-1.87067 0-3.588-.4907-5.152-1.472s-2.806-2.3153-3.726-4.002c-.88933-1.7173-1.334-3.6187-1.334-5.704 0-2.024.44467-3.8947 1.334-5.612.88933-1.748 2.116-3.1433 3.68-4.186 1.59467-1.0427 3.37333-1.564 5.336-1.564 1.7173 0 3.1433.3067 4.278.92 1.1653.6133 2.0087 1.334 2.53 2.162s.782 1.5487.782 2.162c0 .736-.414 1.288-1.242 1.656-2.116.9507-5.198 2.116-9.246 3.496-2.668.9813-4.002 2.2847-4.002 3.91 0 .3987.092.828.276 1.288.58267 1.4107 1.54867 2.6527 2.898 3.726 1.38 1.0733 3.0973 1.61 5.152 1.61 1.196 0 2.346-.276 3.45-.828 1.1347-.552 2.1313-1.2727 2.99-2.162.5213-.5213.8893-.7207 1.104-.598.0307 0 .046.046.046.138 0 .2147-.092.4293-.276.644-.9507 1.2573-2.1773 2.3153-3.68 3.174-1.472.828-3.2047 1.242-5.198 1.242zm-7.498-9.706c.39867-.9813 1.11933-1.7633 2.162-2.346 1.07333-.5827 2.56067-1.196 4.462-1.84 1.3493-.46 2.3767-.8433 3.082-1.15.92-.4293 1.5333-.7973 1.84-1.104.3373-.3067.506-.69.506-1.15 0-.644-.184-1.288-.552-1.932s-.92-1.1807-1.656-1.61c-.7053-.4293-1.5793-.644-2.622-.644-.368 0-.6593.0153-.874.046-2.14667.276-3.818 1.2113-5.014 2.806-1.16533 1.5947-1.748 3.5113-1.748 5.75 0 1.0427.138 2.1007.414 3.174z" mask="url(#a)" stroke="#ffe2c0" stroke-width=".6"/><path d="m28.3183 33.292c0 .3987.1073.69.3219.874.2147.1533.5827.276 1.1041.368.5213.092 1.1346.1687 1.84.23.276.0307.506.092.69.184.184.0613.276.1533.276.276s-.0767.1993-.23.23c-.1227.0307-.2761.046-.46.046h-9.5681c-.184 0-.3526-.0153-.5059-.046-.1227-.0307-.184-.1073-.184-.23s.092-.2147.276-.276c.184-.092.414-.1533.69-.184.184-.0307.6439-.0767 1.3799-.138.7667-.092 1.2727-.23 1.5181-.414.2453-.2147.3679-.5213.3679-.92v-28.704c0-.368-.1226-.61333-.3679-.736-.2454-.15333-.644-.23-1.196-.23h-1.7481c-.184 0-.3526-.01533-.5059-.046-.1227-.03067-.184-.10733-.184-.23s.1226-.21466.368-.276c.276-.06133.8433-.15333 1.702-.276.6746-.092 1.2419-.24533 1.7019-.46.46-.24533.9354-.53667 1.4261-.874.3986-.30667.7053-.46.92-.46.1533 0 .2453.10733.276.322.0613.21467.092.61333.092 1.196z" mask="url(#a)" stroke="#ffe2c0" stroke-width=".6"/><path d="m49.9591 22.85c-.4907.5213-1.196.966-2.116 1.334-.8893.3373-2.116.736-3.68 1.196-.736.184-1.472.3987-2.208.644-1.5947.5213-2.714 1.1347-3.358 1.84-.6133.6747-.92 1.4873-.92 2.438 0 1.196.4907 2.2233 1.472 3.082.9813.828 2.1313 1.242 3.45 1.242 1.5947 0 2.944-.3833 4.048-1.15 1.1347-.7973 1.9627-1.7787 2.484-2.944.552-1.1653.828-2.3.828-3.404zm-15.134 8.05c0-1.4413.506-2.5453 1.518-3.312 1.0427-.7973 2.7753-1.5947 5.198-2.392l1.84-.598c2.4227-.7667 4.1093-1.4107 5.06-1.932.9813-.552 1.472-1.3033 1.472-2.254 0-1.9627-.414-3.5113-1.242-4.646s-2.1313-1.702-3.91-1.702c-3.3427 0-4.968 1.1347-4.876 3.404.0307.7053-.1073 1.242-.414 1.61-.3067.3373-.7207.506-1.242.506-1.012 0-1.518-.5367-1.518-1.61 0-.92.368-1.748 1.104-2.484s1.7173-1.3033 2.944-1.702c1.2267-.4293 2.5607-.644 4.002-.644 5.1213 0 7.682 2.6373 7.682 7.912v10.856c0 1.1347.092 1.886.276 2.254.2147.3373.552.506 1.012.506.3067 0 .6747-.138 1.104-.414.4293-.3067.6747-.4907.736-.552.46-.3067.7667-.3833.92-.23.0307.0307.046.092.046.184 0 .1227-.092.276-.276.46-.552.552-1.1347.9507-1.748 1.196-.5827.2453-1.1193.368-1.61.368-.6747 0-1.334-.1687-1.978-.506s-.966-1.058-.966-2.162v-.414c0-.276-.046-.414-.138-.414s-.23.1073-.414.322c-1.9933 2.116-4.7227 3.174-8.188 3.174-.9507 0-1.932-.184-2.944-.552-.9813-.368-1.8093-.9047-2.484-1.61-.644-.736-.966-1.61-.966-2.622z" mask="url(#a)" stroke="#ffe2c0" stroke-width=".6"/><path d="m64.6899 33.292c0 .4907.2146.8127.644.966.4293.1533.9813.276 1.656.368.7053.0613 1.1806.1073 1.426.138.276.0307.506.092.69.184.184.0613.276.1533.276.276s-.0767.1993-.23.23c-.1227.0307-.276.046-.46.046h-9.568c-.184 0-.3527-.0153-.506-.046-.1227-.0307-.184-.1073-.184-.23 0-.2147.322-.368.966-.46.184-.0307.5826-.092 1.196-.184.644-.092 1.0733-.23 1.288-.414.2146-.2147.322-.506.322-.874v-16.192c0-.3987-.0614-.6593-.184-.782-.1227-.1227-.4294-.184-.92-.184h-1.288c-.184 0-.3527-.0153-.506-.046-.1227-.0307-.184-.1073-.184-.23s.138-.2147.414-.276c.276-.092.6746-.184 1.196-.276.6746-.1227 1.2113-.2913 1.61-.506.3986-.2453.782-.5213 1.15-.828s.644-.46.828-.46c.1533 0 .2453.1073.276.322.0613.2147.092.6133.092 1.196v1.426c0 .276.046.414.138.414.0613 0 .1686-.1073.322-.322.6746-1.012 1.564-1.8247 2.668-2.438 1.1346-.644 2.438-.966 3.91-.966 1.1346 0 2.2233.2453 3.266.736 1.0426.46 1.564 1.1193 1.564 1.978 0 .46-.1534.828-.46 1.104-.3067.276-.6747.414-1.104.414-.4907 0-.8587-.1073-1.104-.322-.2147-.2147-.46-.5673-.736-1.058-.3067-.5827-.644-1.012-1.012-1.288-.368-.3067-.9507-.46-1.748-.46-1.1654 0-2.1927.3987-3.082 1.196-.8587.7667-1.518 1.794-1.978 3.082-.4294 1.2573-.644 2.6067-.644 4.048z" mask="url(#a)" stroke="#ffe2c0" stroke-width=".6"/><path d="m94.0275 22.85c-.4907.5213-1.196.966-2.116 1.334-.8894.3373-2.116.736-3.68 1.196-.736.184-1.472.3987-2.208.644-1.5947.5213-2.714 1.1347-3.358 1.84-.6134.6747-.92 1.4873-.92 2.438 0 1.196.4906 2.2233 1.472 3.082.9813.828 2.1313 1.242 3.4499 1.242 1.5947 0 2.9441-.3833 4.0481-1.15 1.1346-.7973 1.9626-1.7787 2.484-2.944.552-1.1653.828-2.3.828-3.404zm-15.134 8.05c0-1.4413.506-2.5453 1.518-3.312 1.0426-.7973 2.7753-1.5947 5.198-2.392l1.84-.598c2.4226-.7667 4.1093-1.4107 5.06-1.932.9813-.552 1.472-1.3033 1.472-2.254 0-1.9627-.414-3.5113-1.242-4.646s-2.1314-1.702-3.91-1.702c-3.3427 0-4.968 1.1347-4.876 3.404.0306.7053-.1074 1.242-.414 1.61-.3067.3373-.7207.506-1.242.506-1.012 0-1.518-.5367-1.518-1.61 0-.92.368-1.748 1.104-2.484s1.7173-1.3033 2.944-1.702c1.2266-.4293 2.5606-.644 4.002-.644 5.1213 0 7.682 2.6373 7.682 7.912v10.856c0 1.1347.092 1.886.276 2.254.2146.3373.552.506 1.012.506.3066 0 .6746-.138 1.104-.414.4293-.3067.6746-.4907.736-.552.4595-.3067.7665-.3833.9195-.23.031.0307.046.092.046.184 0 .1227-.092.276-.276.46-.5515.552-1.1342.9507-1.7475 1.196-.5827.2453-1.1194.368-1.61.368-.6747 0-1.334-.1687-1.978-.506s-.966-1.058-.966-2.162v-.414c0-.276-.046-.414-.138-.414s-.23.1073-.414.322c-1.9934 2.116-4.7227 3.174-8.188 3.174-.9507 0-1.932-.184-2.944-.552-.9814-.368-1.8094-.9047-2.484-1.61-.644-.736-.966-1.61-.966-2.622z" mask="url(#a)" stroke="#ffe2c0" stroke-width=".6"/></svg>